<?xml version="1.0" encoding="utf-8"?>
<!-- Generator: Adobe Illustrator 25.0.0, SVG Export Plug-In . SVG Version: 6.00 Build 0)  -->
<svg version="1.1" id="Layer_1" xmlns="http://www.w3.org/2000/svg" xmlns:xlink="http://www.w3.org/1999/xlink" x="0px" y="0px"
	 viewBox="0 0 785.34 400.1" style="enable-background:new 0 0 785.34 400.1;" xml:space="preserve">
<path id="XMLID_43_" d="M760.17,125.82c-8.74-21.58-20.85-40.12-36.34-55.62c-15.5-15.49-33.95-27.52-55.37-36.09
	c-21.43-8.57-44.83-12.85-70.2-12.85H348.61H246.87H12.93v62.79h136.45v296.63h62.79V84.05h386.1c16.14,0,31.06,2.89,44.74,8.65
	c13.67,5.77,25.54,13.77,35.6,23.98c10.05,10.22,17.87,22.49,23.48,36.83c5.6,14.34,8.4,29.91,8.4,46.72
	c0,16.81-2.8,32.47-8.4,46.97c-5.61,14.51-13.43,26.94-23.48,37.33c-10.06,10.38-21.92,18.54-35.6,24.47
	c-13.68,5.93-28.6,8.9-44.74,8.9H452.43v-185.4h-62.29v248.19h208.13c25.38,0,48.77-4.7,70.2-14.09
	c21.42-9.39,39.87-22.25,55.37-38.56c15.49-16.31,27.6-35.67,36.34-58.09c8.73-22.41,13.1-46.63,13.1-72.67
	C773.28,171.23,768.9,147.41,760.17,125.82z"/>
</svg>
